<svg width="353" height="65" viewBox="0 0 353 65" fill="none" xmlns="http://www.w3.org/2000/svg">
<path d="M45.3999 17.4629C35.8999 24.2629 28.7999 34.0629 25.3999 45.3629C29.9999 38.5629 34.9999 32.7629 40.6999 28.9629C33.9999 34.9629 28.5999 42.9629 23.8999 52.4629C28.8999 45.1629 35.5999 39.0629 43.2999 34.5629C36.6999 40.0629 30.5999 46.2629 25.1999 52.9629C35.7999 44.5629 46.9999 39.0629 58.9999 37.1629L70.6999 55.2629H4.8999L37.8999 5.96289L45.3999 17.4629Z" fill="#0055A5"/>
<path d="M26.2 43.9631C31.1 30.5631 39.1999 21.9631 48.5999 15.1631L52 20.9631C42.2 25.1631 33.5 32.3631 26.2 43.9631Z" fill="#4DAA3F"/>
<path d="M25.5 49.6629C35.6 36.7629 45.8 29.8629 56 27.0629L52.8 21.9629C38.3 27.7629 31.3 38.3629 25.5 49.6629Z" fill="#4DAA3F"/>
<path d="M26.7998 50.9627C35.8998 38.3627 46.0998 31.3627 57.2998 29.2627L60.4998 34.1627C48.7998 36.0627 37.4998 41.0627 26.7998 50.9627Z" fill="#4DAA3F"/>
<path d="M133.188 40.2421L125.588 40.1421L119.888 30.6421H103.688L107.288 24.7421H116.288L110.388 14.9421L94.8878 40.1421H87.2878L105.788 9.34209C106.288 8.54209 106.988 7.74209 107.688 7.14209C108.488 6.44209 109.388 6.04209 110.388 5.94209C111.388 6.04209 112.288 6.34208 113.088 7.04208C113.888 7.64208 114.488 8.44209 114.988 9.24209L133.188 40.2421ZM171.788 40.2421H152.488C147.888 40.3421 143.388 38.5421 140.188 35.3421C136.888 32.0421 135.188 27.5421 135.288 22.8421C135.088 18.3421 136.888 13.9421 140.088 10.7421C143.388 7.64209 147.888 5.94209 152.488 6.14209H171.788V12.0421H152.488C146.488 11.8421 141.488 16.4421 141.288 22.4421C141.288 22.7421 141.288 23.0421 141.288 23.3421C141.188 26.3421 142.288 29.2421 144.488 31.2421C146.688 33.3421 149.588 34.4421 152.588 34.2421H171.888V40.2421H171.788ZM215.788 24.8421C215.788 30.3421 214.188 34.3421 210.888 36.8421C207.988 39.0421 203.688 40.1421 197.988 40.1421H195.988C190.288 40.1421 185.988 39.0421 183.088 36.8421C179.788 34.3421 178.188 30.3421 178.188 24.8421V6.04208H184.088V24.8421C184.088 28.9421 185.488 31.6421 188.388 32.9421C190.188 33.7421 193.488 34.1421 198.088 34.1421C201.988 34.1421 204.788 33.5421 206.588 32.3421C208.888 30.8421 209.988 28.3421 209.988 24.7421V6.04208H215.888V24.8421H215.788ZM273.988 40.2421H267.288L262.288 16.3421L250.888 38.3421C250.388 39.6421 249.088 40.5421 247.688 40.6421C246.188 40.6421 244.788 39.7421 244.188 38.3421L232.788 16.3421L227.888 40.2421H221.088L228.688 8.94209C228.888 8.04209 229.388 7.24209 229.988 6.64209C230.588 6.04209 231.488 5.64209 232.388 5.64209C233.688 5.64209 234.888 6.74209 236.088 8.94209L247.488 31.2421L258.888 8.94209C260.088 6.74209 261.288 5.64209 262.588 5.64209C263.488 5.64209 264.388 6.04209 264.988 6.74209C265.588 7.34209 266.088 8.14208 266.288 9.04208L273.988 40.2421ZM308.288 25.8421H288.788V19.9421H308.288V25.8421ZM309.888 40.2421H280.388V6.04208H309.888V11.9421H286.388V34.1421H309.888V40.2421ZM350.588 37.2421C350.588 39.4421 349.888 40.5421 348.388 40.5421C347.288 40.5421 346.088 39.8421 344.688 38.5421L322.788 16.5421V40.2421H316.888V9.04208C316.888 8.34208 317.088 7.54209 317.588 6.94209C317.988 6.34209 318.688 6.04208 319.388 6.04208C320.688 6.14208 321.888 6.74209 322.788 7.84209L344.688 29.7421V6.04208H350.588V37.2421Z" fill="#0055A5"/>
<path d="M104.918 53.8493C105.318 53.8493 105.618 53.9493 106.018 53.9493C108.518 53.9493 110.018 52.5493 110.018 49.8493C110.018 47.5493 108.718 46.1493 106.218 46.1493C105.818 46.1493 105.318 46.1493 104.918 46.2493V53.8493ZM102.918 44.8493C104.018 44.7493 105.018 44.6493 106.018 44.6493C107.518 44.5493 109.118 44.9493 110.318 45.8493C111.418 46.8493 112.018 48.2493 112.018 49.7493C112.118 51.3493 111.518 52.8493 110.318 53.9493C109.018 55.0493 107.318 55.5493 105.618 55.4493C104.718 55.4493 103.918 55.4493 103.018 55.3493L102.918 44.8493Z" fill="#4DAA3F"/>
<path d="M116.818 50.1493C116.818 49.1493 116.818 48.3493 116.718 47.6493H118.418L118.518 49.1493H118.618C118.918 48.2493 119.718 47.5493 120.718 47.5493C120.918 47.5493 121.018 47.5493 121.218 47.5493V49.3493C121.018 49.3493 120.818 49.2493 120.618 49.2493C119.718 49.2493 119.018 49.8493 118.918 50.7493C118.918 50.9493 118.818 51.1493 118.818 51.3493V55.3493H116.918L116.818 50.1493Z" fill="#4DAA3F"/>
<path d="M130.218 50.6493C130.318 49.7493 129.718 48.9493 128.818 48.7493C128.718 48.7493 128.718 48.7493 128.618 48.7493C127.618 48.8493 126.818 49.6493 126.818 50.6493H130.218ZM126.818 52.0493C126.818 53.2493 127.818 54.0493 129.018 54.0493C129.118 54.0493 129.118 54.0493 129.218 54.0493C129.918 54.0493 130.618 53.9493 131.318 53.7493L131.618 55.0493C130.718 55.3493 129.818 55.5493 128.918 55.5493C126.918 55.7493 125.118 54.2493 124.918 52.2493C124.918 52.0493 124.918 51.8493 124.918 51.6493C124.918 49.5493 126.218 47.5493 128.618 47.5493C131.118 47.5493 131.918 49.5493 131.918 51.2493C131.918 51.5493 131.918 51.7493 131.818 52.0493H126.818Z" fill="#4DAA3F"/>
<path d="M140.818 51.5493C139.418 51.5493 138.118 51.8493 138.118 52.9493C138.118 53.5493 138.518 54.0493 139.018 54.0493C139.118 54.0493 139.118 54.0493 139.218 54.0493C139.918 54.0493 140.518 53.6493 140.718 52.9493C140.718 52.8493 140.818 52.6493 140.818 52.5493V51.5493ZM142.718 53.4493C142.718 54.0493 142.718 54.6493 142.818 55.2493H141.018L140.918 54.4493C140.318 55.1493 139.518 55.5493 138.618 55.4493C137.318 55.5493 136.318 54.5493 136.218 53.3493V53.2493C136.218 51.3493 137.918 50.3493 140.818 50.3493V50.2493C140.818 49.7493 140.618 48.9493 139.218 48.9493C138.518 48.9493 137.818 49.1493 137.118 49.5493L136.718 48.2493C137.518 47.7493 138.518 47.5493 139.518 47.5493C142.018 47.5493 142.718 49.1493 142.718 50.7493V53.4493Z" fill="#4DAA3F"/>
<path d="M147.918 49.9491C147.918 49.0491 147.918 48.3491 147.818 47.6491H149.518L149.618 48.7491C150.118 47.9491 151.018 47.4491 152.018 47.4491C152.918 47.4491 153.818 47.9491 154.118 48.8491C154.318 48.4491 154.718 48.1491 155.018 47.8491C155.518 47.5491 156.018 47.3491 156.518 47.3491C157.818 47.3491 159.118 48.2491 159.118 50.6491V55.1491H157.218V51.0491C157.218 49.7491 156.818 49.0491 155.818 49.0491C155.218 49.0491 154.618 49.4491 154.418 50.0491C154.318 50.2491 154.318 50.4491 154.318 50.6491V55.2491H152.418V50.8491C152.418 49.7491 152.018 49.0491 151.118 49.0491C150.418 49.0491 149.918 49.5491 149.718 50.1491C149.618 50.3491 149.618 50.5491 149.618 50.7491V55.2491H147.718L147.918 49.9491Z" fill="#4DAA3F"/>
<path d="M172.218 55.5493C171.518 55.5493 171.018 54.9493 171.018 54.2493C171.018 53.6493 171.618 53.0493 172.218 53.0493C172.918 53.0493 173.418 53.6493 173.418 54.3493C173.418 54.9493 172.918 55.4493 172.218 55.5493Z" fill="#4DAA3F"/>
<path d="M187.318 44.749H185.418V55.349H187.318V44.749Z" fill="#4DAA3F"/>
<path d="M192.818 49.9492C192.818 49.0492 192.818 48.3492 192.718 47.6492H194.418L194.518 48.8492C195.118 47.9492 196.018 47.4492 197.018 47.4492C198.318 47.4492 199.718 48.3492 199.718 50.7492V55.3492H197.818V51.0492C197.818 49.9492 197.418 49.1492 196.318 49.1492C195.618 49.1492 195.018 49.6492 194.818 50.2492C194.718 50.4492 194.718 50.6492 194.718 50.8492V55.3492H192.718L192.818 49.9492Z" fill="#4DAA3F"/>
<path d="M205.918 47.6489L207.118 51.5489C207.318 52.2489 207.518 52.8489 207.618 53.4489C207.718 52.8489 207.918 52.2489 208.118 51.5489L209.318 47.6489H211.318L208.418 55.3489H206.518L203.618 47.6489H205.918Z" fill="#4DAA3F"/>
<path d="M220.418 50.6493C220.518 49.7493 219.918 48.9493 219.018 48.7493C218.918 48.7493 218.918 48.7493 218.818 48.7493C217.818 48.8493 217.018 49.6493 217.018 50.6493H220.418ZM217.018 52.0493C217.018 53.1493 218.018 54.0493 219.218 54.0493C219.318 54.0493 219.318 54.0493 219.418 54.0493C220.118 54.0493 220.818 53.9493 221.518 53.7493L221.818 55.0493C220.918 55.3493 220.018 55.5493 219.118 55.5493C217.118 55.7493 215.318 54.2493 215.218 52.2493C215.218 52.0493 215.218 51.8493 215.218 51.6493C215.218 49.5493 216.518 47.5493 218.918 47.5493C221.418 47.5493 222.218 49.5493 222.218 51.2493C222.218 51.5493 222.218 51.7493 222.118 52.0493H217.018Z" fill="#4DAA3F"/>
<path d="M226.818 53.5493C227.418 53.8493 228.118 54.0493 228.818 54.1493C229.718 54.1493 230.018 53.8493 230.018 53.2493C230.018 52.6493 229.718 52.4493 228.718 52.1493C227.218 51.6493 226.618 50.8493 226.618 49.9493C226.618 48.5493 227.718 47.5493 229.518 47.5493C230.218 47.5493 230.918 47.6493 231.518 48.0493L231.118 49.4493C230.618 49.1493 230.018 49.0493 229.518 49.0493C228.818 49.0493 228.418 49.3493 228.418 49.8493C228.418 50.3493 228.818 50.5493 229.718 50.9493C231.118 51.4493 231.718 52.1493 231.718 53.2493C231.718 54.6493 230.618 55.6493 228.618 55.6493C227.818 55.6493 227.018 55.4493 226.318 55.0493L226.818 53.5493Z" fill="#4DAA3F"/>
<path d="M238.818 45.6489V47.6489H240.618V49.1489H238.818V52.5489C238.818 53.4489 239.118 53.9489 239.818 53.9489C240.118 53.9489 240.318 53.9489 240.618 53.8489V55.3489C240.118 55.4489 239.718 55.5489 239.218 55.5489C238.618 55.5489 238.018 55.3489 237.518 54.9489C237.018 54.3489 236.818 53.5489 236.918 52.8489V49.2489H235.818V47.6489H236.918V46.2489L238.818 45.6489Z" fill="#4DAA3F"/>
<path d="M253.118 55.5493C252.418 55.5493 251.918 54.9493 251.918 54.2493C251.918 53.5493 252.518 53.0493 253.118 53.0493C253.818 53.0493 254.318 53.6493 254.318 54.3493C254.318 54.9493 253.818 55.4493 253.118 55.5493Z" fill="#4DAA3F"/>
<path d="M268.318 49.8491C268.618 49.9491 268.918 49.9491 269.218 49.9491C270.718 49.9491 271.518 49.2491 271.518 47.9491C271.518 46.7491 270.718 46.1491 269.318 46.1491C268.918 46.1491 268.618 46.1491 268.218 46.2491L268.318 49.8491ZM266.418 44.8491C267.418 44.6491 268.418 44.6491 269.418 44.6491C270.518 44.5491 271.618 44.8491 272.518 45.5491C273.218 46.1491 273.618 47.0491 273.518 47.9491C273.518 48.8491 273.218 49.7491 272.618 50.3491C271.718 51.1491 270.518 51.5491 269.218 51.4491C268.918 51.4491 268.618 51.4491 268.318 51.3491V55.3491H266.418V44.8491Z" fill="#4DAA3F"/>
<path d="M278.118 50.1493C278.118 49.1493 278.118 48.3493 278.018 47.6493H279.718L279.818 49.1493H279.918C280.218 48.2493 281.018 47.5493 282.018 47.5493C282.218 47.5493 282.318 47.5493 282.518 47.5493V49.3493C282.318 49.3493 282.118 49.2493 281.918 49.2493C281.018 49.2493 280.318 49.8493 280.218 50.7493C280.218 50.9493 280.118 51.1493 280.118 51.3493V55.3493H278.218L278.118 50.1493Z" fill="#4DAA3F"/>
<path d="M288.218 51.5493C288.218 53.0493 288.918 54.1493 290.118 54.1493C291.218 54.1493 292.018 53.0493 292.018 51.5493C292.018 50.3493 291.518 48.9493 290.118 48.9493C288.818 48.9493 288.218 50.2493 288.218 51.5493ZM294.018 51.4493C294.218 53.5493 292.618 55.3493 290.518 55.5493C290.418 55.5493 290.218 55.5493 290.118 55.5493C288.118 55.6493 286.318 54.0493 286.318 51.9493C286.318 51.8493 286.318 51.6493 286.318 51.5493C286.118 49.4493 287.718 47.6493 289.818 47.4493C290.018 47.4493 290.118 47.4493 290.318 47.4493C292.318 47.3493 294.018 48.9493 294.118 50.9493C294.018 51.1493 294.018 51.2493 294.018 51.4493Z" fill="#4DAA3F"/>
<path d="M298.618 53.5493C299.218 53.8493 299.918 54.0493 300.618 54.1493C301.418 54.1493 301.818 53.8493 301.818 53.2493C301.818 52.6493 301.518 52.4493 300.518 52.1493C299.018 51.6493 298.418 50.8493 298.418 49.9493C298.418 48.5493 299.518 47.5493 301.318 47.5493C302.018 47.5493 302.718 47.6493 303.318 48.0493L302.918 49.4493C302.418 49.1493 301.818 49.0493 301.318 49.0493C300.618 49.0493 300.218 49.3493 300.218 49.8493C300.218 50.3493 300.618 50.5493 301.518 50.9493C302.918 51.4493 303.518 52.1493 303.518 53.2493C303.518 54.6493 302.418 55.6493 300.418 55.6493C299.618 55.6493 298.818 55.4493 298.118 55.0493L298.618 53.5493Z" fill="#4DAA3F"/>
<path d="M310.418 52.1492C310.418 52.3492 310.418 52.5492 310.518 52.6492C310.718 53.4492 311.418 54.0492 312.218 54.0492C313.418 54.0492 314.218 53.0492 314.218 51.5492C314.218 50.1492 313.518 49.0492 312.318 49.0492C311.518 49.0492 310.718 49.6492 310.618 50.4492C310.518 50.6492 310.518 50.7492 310.518 50.9492L310.418 52.1492ZM308.418 50.2492C308.418 49.2492 308.418 48.4492 308.318 47.6492H310.018L310.118 48.8492C310.718 47.9492 311.718 47.4492 312.718 47.4492C314.518 47.4492 315.918 48.9492 315.918 51.3492C315.918 54.1492 314.118 55.4492 312.418 55.4492C311.618 55.4492 310.718 55.1492 310.218 54.4492V58.4492H308.318V50.2492H308.418Z" fill="#4DAA3F"/>
<path d="M325.518 50.6493C325.618 49.7493 325.018 48.9493 324.118 48.7493C324.018 48.7493 324.018 48.7493 323.918 48.7493C322.918 48.8493 322.118 49.6493 322.118 50.6493H325.518ZM322.218 52.0493C322.218 53.1493 323.218 54.0493 324.418 54.0493C324.518 54.0493 324.518 54.0493 324.618 54.0493C325.318 54.0493 326.018 53.9493 326.718 53.7493L327.018 55.0493C326.118 55.3493 325.218 55.5493 324.318 55.5493C322.318 55.7493 320.518 54.2493 320.318 52.2493C320.318 52.0493 320.318 51.8493 320.318 51.6493C320.318 49.5493 321.618 47.5493 324.118 47.5493C326.618 47.5493 327.418 49.5493 327.418 51.2493C327.418 51.5493 327.418 51.7493 327.318 52.0493H322.218Z" fill="#4DAA3F"/>
<path d="M332.118 50.1493C332.118 49.1493 332.118 48.3493 332.018 47.6493H333.718L333.818 49.1493H333.918C334.218 48.2493 335.018 47.5493 336.018 47.5493C336.218 47.5493 336.318 47.5493 336.518 47.5493V49.3493C336.318 49.3493 336.118 49.2493 335.918 49.2493C335.018 49.2493 334.318 49.8493 334.218 50.7493C334.218 50.9493 334.118 51.1493 334.118 51.3493V55.3493H332.218V50.1493H332.118Z" fill="#4DAA3F"/>
</svg>
